<svg width="40" height="40" viewBox="0 0 40 40" fill="none" xmlns="http://www.w3.org/2000/svg">
<path opacity="0.4" d="M36.6666 13.0166V25.2666C36.1833 25.0333 35.6499 24.8666 35.0499 24.7666L34.5333 24.6833L34.0999 23.7833C33.1832 21.9166 31.6833 20.8333 29.9999 20.8333C28.3166 20.8333 26.8166 21.9166 25.8999 23.7833L25.4499 24.6833L24.9499 24.7666C22.9666 25.0999 21.5332 26.1999 21.0166 27.7666C20.5166 29.3499 21.0333 31.0833 22.4499 32.5166L22.9666 33.0333L22.9166 33.2333C22.5833 34.7166 22.7166 35.8499 23.0333 36.6666H13.0166C6.94991 36.6666 3.33325 33.0499 3.33325 26.9833V13.0166C3.33325 6.94992 6.94991 3.33325 13.0166 3.33325H26.9833C33.0499 3.33325 36.6666 6.94992 36.6666 13.0166Z" fill="#FB3F6C"/>
<path d="M31.8667 24.8999L32.4 25.9832C32.6667 26.5166 33.35 27.0166 33.9167 27.1166L34.6333 27.2332C36.8167 27.5999 37.3167 29.1999 35.7667 30.7666L35.1 31.4332C34.65 31.8832 34.4167 32.7499 34.55 33.3832L34.6333 33.7832C35.2333 36.4166 33.8333 37.4332 31.55 36.0499L31.0667 35.7499C30.4834 35.3999 29.5166 35.3999 28.9333 35.7499L28.45 36.0499C26.15 37.4332 24.7667 36.4166 25.3667 33.7832L25.45 33.3832C25.5833 32.7666 25.35 31.8832 24.9 31.4332L24.2334 30.7666C22.6834 29.1832 23.1833 27.5999 25.3667 27.2332L26.0833 27.1166C26.6667 27.0166 27.3333 26.5166 27.6 25.9832L28.1333 24.8999C29.1667 22.8166 30.8333 22.8166 31.8667 24.8999Z" fill="#FB3F6C"/>
<path fill-rule="evenodd" clip-rule="evenodd" d="M26.8824 13.1955C27.428 13.6184 27.5275 14.4036 27.1045 14.9492L23.2471 19.9254C22.2556 21.1793 20.4276 21.408 19.1523 20.4225L19.1436 20.4158L16.0993 18.0202C15.9112 17.8774 15.6489 17.9129 15.506 18.0972C15.5059 18.0974 15.5062 18.097 15.506 18.0972L11.5402 23.2462C11.1189 23.7931 10.334 23.895 9.78711 23.4737C9.24018 23.0525 9.1383 22.2676 9.55956 21.7207L13.5274 16.5691C14.5173 15.2881 16.3526 15.0566 17.6309 16.0443L17.6396 16.051L20.6838 18.4466C20.8739 18.5909 21.1417 18.5537 21.2835 18.3779L25.1286 13.4176C25.5516 12.872 26.3368 12.7725 26.8824 13.1955Z" fill="#FB3F6C"/>
</svg>
