<svg width="40" height="40" viewBox="0 0 40 40" fill="none" xmlns="http://www.w3.org/2000/svg">
<path opacity="0.4" d="M35.6166 18.9833V28.9666C35.6166 33.5666 31.8833 37.2999 27.2833 37.2999H12.7166C8.11663 37.2999 4.3833 33.5666 4.3833 28.9666V19.0999C5.64997 20.4666 7.44997 21.2499 9.39997 21.2499C11.5 21.2499 13.5166 20.1999 14.7833 18.5166C15.9166 20.1999 17.85 21.2499 20 21.2499C22.1333 21.2499 24.0333 20.2499 25.1833 18.5833C26.4666 20.2333 28.45 21.2499 30.5166 21.2499C32.5333 21.2499 34.3666 20.4333 35.6166 18.9833Z" fill="#593FFB"/>
<path d="M24.9832 2.08325H14.9832L13.7499 14.3499C13.6499 15.4833 13.8166 16.5499 14.2332 17.5166C15.1999 19.7833 17.4666 21.2499 19.9999 21.2499C22.5666 21.2499 24.7833 19.8166 25.7833 17.5333C26.0833 16.8166 26.2666 15.9833 26.2833 15.1333V14.8166L24.9832 2.08325Z" fill="#593FFB"/>
<path opacity="0.6" d="M37.2666 13.7833L36.7833 9.16659C36.0833 4.13325 33.7999 2.08325 28.9166 2.08325H22.5166L23.7499 14.5833C23.7666 14.7499 23.7833 14.9333 23.7833 15.2499C23.8833 16.1166 24.1499 16.9166 24.5499 17.6333C25.7499 19.8333 28.0833 21.2499 30.5166 21.2499C32.7333 21.2499 34.7333 20.2666 35.9833 18.5333C36.9833 17.1999 37.4333 15.5166 37.2666 13.7833Z" fill="#593FFB"/>
<path opacity="0.6" d="M10.9832 2.08325C6.08324 2.08325 3.81657 4.13325 3.0999 9.21659L2.6499 13.7999C2.48324 15.5833 2.96657 17.3166 4.01657 18.6666C5.28324 20.3166 7.23324 21.2499 9.39991 21.2499C11.8332 21.2499 14.1666 19.8333 15.3499 17.6666C15.7832 16.9166 16.0666 16.0499 16.1499 15.1499L17.4499 2.09992H10.9832V2.08325Z" fill="#593FFB"/>
<path d="M18.9166 27.7667C16.8 27.9834 15.2 29.7834 15.2 31.9167V37.3001H24.7833V32.5001C24.7999 29.0167 22.75 27.3667 18.9166 27.7667Z" fill="#593FFB"/>
</svg>
