<svg width="40" height="40" viewBox="0 0 40 40" fill="none" xmlns="http://www.w3.org/2000/svg">
<path opacity="0.4" d="M31.6666 17.1334V29.0501C31.6166 33.8001 30.3165 35.0001 25.3665 35.0001H9.6333C4.59997 35.0001 3.33325 33.7501 3.33325 28.7834V17.1334C3.33325 12.6334 4.38325 11.1834 8.33325 10.9501C8.73325 10.9334 9.16663 10.9167 9.6333 10.9167H25.3665C30.3999 10.9167 31.6666 12.1667 31.6666 17.1334Z" fill="#80CC28"/>
<path d="M36.6666 11.2167V22.8667C36.6666 27.3667 35.6166 28.8167 31.6666 29.05V17.1333C31.6666 12.1667 30.3999 10.9167 25.3665 10.9167H9.6333C9.16663 10.9167 8.73325 10.9333 8.33325 10.95C8.38325 6.2 9.6833 5 14.6333 5H30.3665C35.3999 5 36.6666 6.25 36.6666 11.2167Z" fill="#80CC28"/>
<path d="M11.6001 30.9333H8.7334C8.05007 30.9333 7.4834 30.3667 7.4834 29.6833C7.4834 29 8.05007 28.4333 8.7334 28.4333H11.6001C12.2835 28.4333 12.8501 29 12.8501 29.6833C12.8501 30.3667 12.3001 30.9333 11.6001 30.9333Z" fill="#80CC28"/>
<path d="M20.9167 30.9333H15.1833C14.5 30.9333 13.9333 30.3667 13.9333 29.6833C13.9333 29 14.5 28.4333 15.1833 28.4333H20.9167C21.6 28.4333 22.1667 29 22.1667 29.6833C22.1667 30.3667 21.6167 30.9333 20.9167 30.9333Z" fill="#80CC28"/>
<path d="M31.6666 19.7666H3.33325V22.2666H31.6666V19.7666Z" fill="#80CC28"/>
</svg>
